<?xml version="1.0" standalone="no"?>
<!DOCTYPE svg PUBLIC "-//W3C//DTD SVG 20010904//EN"
 "http://www.w3.org/TR/2001/REC-SVG-20010904/DTD/svg10.dtd">
<svg version="1.0" xmlns="http://www.w3.org/2000/svg"
 width="1030.000000pt" height="1030.000000pt" viewBox="0 0 1030.000000 1030.000000"
 preserveAspectRatio="xMidYMid meet">
<metadata>
Created by potrace 1.14, written by Peter Selinger 2001-2017
</metadata>
<g transform="translate(0.000000,1030.000000) scale(0.100000,-0.100000)"
fill="#000000" stroke="none">
<path d="M4300 8480 c-127 -27 -211 -125 -205 -240 1 -30 10 -71 18 -91 19
-43 89 -119 110 -119 8 0 27 -16 43 -35 47 -59 89 -79 172 -79 l73 -1 -4 -40
c-3 -22 -8 -51 -12 -65 -3 -14 -8 -36 -10 -50 -2 -14 -7 -36 -10 -50 -10 -45
-26 -124 -32 -155 -2 -16 -9 -50 -14 -75 -9 -45 -15 -74 -24 -120 -3 -14 -8
-38 -10 -55 -3 -16 -12 -64 -20 -105 -18 -95 -45 -247 -50 -280 -7 -54 -17
-109 -36 -195 -10 -49 -19 -114 -19 -145 0 -76 39 -153 100 -198 25 -18 61
-48 80 -67 55 -55 104 -74 180 -71 142 5 214 74 235 226 4 24 8 47 10 50 1 3
6 25 9 50 3 25 8 56 11 70 2 13 7 42 10 65 3 22 8 47 10 55 2 8 7 31 10 50 3
19 8 46 10 60 24 118 38 204 39 228 0 12 4 22 10 22 5 0 7 2 4 5 -3 4 -2 23 3
43 4 20 10 51 13 68 3 18 24 120 46 228 22 107 41 203 43 213 2 10 11 52 21
94 l17 76 107 -1 c146 0 216 11 298 50 22 10 45 24 52 31 7 7 18 13 23 13 5 0
9 7 9 15 0 8 4 15 9 15 7 0 44 64 46 80 0 3 3 10 5 15 9 17 4 77 -9 124 -12
43 -96 141 -121 141 -6 0 -24 15 -41 34 -59 68 -189 108 -248 76 -10 -5 -30
-11 -44 -14 -26 -4 -147 -9 -157 -6 -6 2 -28 6 -125 21 -38 6 -79 13 -90 16
-11 2 -38 6 -60 9 -21 2 -51 7 -65 10 -40 9 -381 12 -420 4z"/>
<path d="M7897 8454 c-2 -2 -12 -5 -23 -7 -36 -7 -69 -25 -106 -59 -69 -63
-97 -151 -72 -235 11 -40 11 -41 -7 -30 -11 7 -19 15 -19 19 0 5 -6 8 -13 8
-7 0 -26 14 -43 31 -57 60 -176 127 -255 143 -13 3 -46 9 -73 14 -93 19 -237
6 -341 -30 -205 -71 -351 -208 -401 -377 -18 -64 -21 -180 -6 -236 6 -22 11
-43 12 -48 0 -18 51 -106 86 -149 46 -56 235 -214 291 -243 21 -10 45 -24 53
-31 8 -6 36 -19 63 -29 53 -20 62 -38 53 -104 -8 -60 -43 -152 -68 -178 -21
-22 -67 -31 -82 -15 -4 4 -11 7 -16 7 -35 0 -102 87 -100 131 3 114 1 133 -26
189 -16 34 -88 105 -106 105 -5 0 -22 15 -39 34 -90 103 -249 105 -349 5 -44
-44 -78 -118 -64 -141 3 -4 1 -8 -3 -8 -17 0 -5 -165 18 -240 26 -86 87 -198
149 -273 23 -29 106 -108 132 -125 13 -9 28 -21 34 -27 253 -237 536 -303 764
-177 62 34 200 158 200 179 0 6 6 16 14 22 33 28 100 193 123 301 9 45 10 256
1 293 -33 139 -104 252 -203 322 -15 11 -35 27 -44 35 -40 37 -109 89 -141
105 -19 10 -63 33 -98 50 l-62 33 24 16 c14 8 43 22 66 30 39 13 43 13 61 -5
10 -10 19 -23 19 -28 0 -13 45 -55 77 -71 15 -8 41 -30 57 -49 55 -61 161 -90
251 -68 77 20 145 81 162 149 21 81 -12 262 -55 312 -17 18 -16 18 13 3 17 -8
39 -25 50 -37 43 -48 124 -92 193 -105 9 -2 17 -4 17 -5 0 -1 8 -3 18 -5 51
-10 52 -16 33 -156 -3 -19 -12 -92 -21 -164 -8 -71 -17 -139 -19 -150 -2 -11
-7 -45 -10 -76 -4 -31 -9 -67 -11 -80 -3 -13 -7 -44 -10 -69 -2 -25 -9 -68
-14 -97 -6 -29 -13 -74 -17 -100 -3 -26 -8 -57 -10 -68 -3 -11 -7 -35 -10 -54
-10 -57 -13 -71 -18 -79 -19 -31 -33 -256 -17 -275 6 -8 9 -16 6 -19 -8 -8 69
-85 103 -102 17 -9 32 -21 32 -25 0 -19 97 -79 147 -90 141 -34 262 35 289
164 1 6 5 26 8 45 4 19 9 42 11 50 4 14 14 77 20 130 2 14 11 68 20 120 9 52
18 106 20 120 7 52 16 116 21 145 3 17 7 46 10 65 2 19 6 53 10 75 20 140 32
231 39 305 5 44 13 111 20 160 2 14 7 56 10 95 4 38 7 70 8 71 1 1 49 4 107 8
133 7 202 16 296 36 185 40 238 304 83 417 -24 18 -60 48 -79 67 -38 35 -88
65 -123 72 -33 6 -114 7 -124 1 -42 -26 -501 -27 -685 -1 -21 3 -50 6 -65 8
-34 5 -109 23 -143 36 -27 10 -97 19 -103 14z"/>
<path d="M1787 8444 c-1 -2 -17 -6 -35 -9 -59 -10 -167 -60 -200 -92 -7 -7
-17 -13 -21 -13 -11 0 -129 -117 -161 -159 -43 -56 -105 -163 -134 -231 -31
-72 -116 -297 -121 -320 -2 -8 -17 -58 -33 -110 -35 -113 -108 -398 -117 -455
-3 -22 -8 -48 -11 -57 -21 -69 -27 -191 -12 -242 14 -45 69 -111 111 -132 16
-9 41 -29 55 -45 74 -88 214 -98 323 -23 62 43 72 69 136 377 4 21 12 27 32
28 81 3 271 4 298 1 38 -5 38 3 -9 -191 -31 -129 -31 -176 -4 -228 17 -33 74
-93 88 -93 5 0 33 -21 61 -47 73 -67 76 -69 188 -89 32 -5 102 17 144 46 46
32 87 102 100 173 9 45 20 48 29 7 6 -31 95 -130 116 -130 6 0 24 -16 41 -35
56 -63 173 -101 256 -82 74 18 143 86 159 158 2 10 6 27 8 37 2 11 25 102 50
203 25 101 47 193 49 204 2 11 7 31 10 45 23 88 58 248 59 267 1 8 11 11 25 9
55 -10 61 -16 69 -64 4 -26 8 -51 10 -57 4 -17 33 -188 39 -225 14 -101 20
-160 29 -311 4 -52 9 -106 12 -120 3 -13 6 -29 6 -35 2 -24 55 -90 98 -122 25
-18 63 -49 85 -69 57 -50 90 -63 167 -64 93 0 192 72 224 163 15 45 6 243 -21
448 -3 25 -8 61 -10 80 -3 19 -7 52 -11 73 -3 20 -7 47 -9 60 -3 23 -21 124
-30 167 -23 102 -32 160 -25 160 7 0 95 86 115 112 84 110 127 243 126 388 -2
165 -85 320 -228 424 -29 21 -56 43 -60 50 -17 27 -213 138 -213 120 0 -3 -8
0 -19 5 -10 6 -31 13 -47 16 -16 2 -40 7 -54 10 -82 17 -164 23 -320 22 -166
-2 -178 -3 -231 -28 -100 -47 -128 -94 -154 -259 -2 -14 -6 -36 -8 -50 -2 -14
-12 -62 -21 -108 -10 -45 -19 -95 -21 -110 -2 -15 -4 -28 -6 -29 -2 -4 -4 -11
-14 -63 -10 -52 -12 -59 -14 -62 -2 -2 -4 -16 -6 -33 -2 -16 -7 -41 -11 -55
-3 -14 -8 -36 -11 -50 -2 -14 -9 -45 -14 -70 -6 -25 -13 -56 -16 -70 -9 -44
-11 -55 -13 -55 -1 0 -3 -9 -4 -20 -2 -11 -11 -51 -21 -90 -9 -38 -18 -79 -20
-90 -1 -11 -3 -20 -5 -20 -1 0 -3 -9 -4 -20 -2 -11 -11 -51 -20 -90 -10 -38
-20 -79 -22 -90 -3 -11 -8 -33 -10 -49 -3 -16 -10 -38 -14 -50 -9 -21 -9 -9 6
179 8 98 8 518 0 600 -5 53 -18 162 -21 175 -37 172 -90 283 -178 371 -33 32
-63 59 -68 59 -4 0 -25 17 -46 38 -97 93 -237 146 -377 141 -36 -1 -67 -3 -69
-5z m1708 -578 c31 -2 41 -7 43 -23 4 -24 -53 -83 -82 -84 -12 0 -36 -2 -53
-4 -18 -2 -35 0 -37 4 -4 6 8 78 19 107 2 7 17 10 37 8 18 -3 51 -6 73 -8z
m-1545 -91 c1 -27 3 -93 4 -145 l1 -95 -98 0 c-55 0 -101 4 -104 8 -7 12 44
138 83 203 19 33 49 71 66 87 38 32 43 26 48 -58z"/>
<path d="M5925 8320 c-81 -18 -142 -74 -177 -163 -40 -99 -89 -264 -119 -402
-5 -22 -13 -58 -18 -80 -6 -22 -8 -41 -6 -44 2 -2 0 -11 -5 -20 -4 -9 -11 -37
-15 -61 -4 -25 -8 -47 -11 -51 -2 -3 -6 -21 -9 -40 -2 -19 -9 -56 -15 -84 -6
-27 -13 -61 -15 -75 -6 -34 -13 -66 -25 -126 -6 -28 -13 -61 -15 -75 -6 -28
-6 -31 -35 -164 -17 -76 -31 -113 -58 -153 -20 -29 -37 -61 -39 -70 -1 -9 -4
-28 -6 -42 -5 -29 26 -147 50 -193 18 -36 67 -87 82 -87 5 0 31 -21 57 -46 85
-85 180 -106 285 -66 62 24 128 109 143 184 3 12 14 55 25 93 18 63 53 214 67
285 3 14 16 81 30 150 14 69 28 136 30 150 2 14 7 39 11 55 4 17 7 32 8 35 20
100 23 112 29 155 4 20 8 40 10 44 3 3 7 26 11 51 4 24 11 52 16 62 5 9 9 21
8 25 -1 4 0 10 1 13 1 3 3 12 5 20 7 34 48 185 57 210 33 90 40 117 45 164 5
47 2 64 -21 110 -15 30 -43 67 -62 83 -19 15 -58 48 -87 73 -57 49 -88 69
-121 77 -37 9 -80 10 -111 3z"/>
<path d="M686 6162 c-2 -1 -55 -5 -117 -8 -136 -5 -185 -21 -233 -74 -58 -64
-77 -113 -82 -204 -4 -76 -11 -151 -14 -151 -1 0 -3 -16 -5 -35 -1 -19 -5 -51
-8 -70 -21 -128 -49 -310 -53 -335 -5 -34 -21 -128 -29 -165 -3 -14 -12 -56
-20 -95 -17 -83 -21 -103 -36 -172 -5 -29 -10 -55 -10 -58 0 -2 -5 -19 -10
-37 -5 -18 -14 -53 -20 -78 -15 -67 -28 -122 -37 -150 -12 -42 -7 -147 8 -177
22 -41 50 -72 90 -96 19 -11 46 -34 60 -50 39 -46 103 -78 167 -84 101 -9 170
21 217 96 23 37 51 137 106 381 12 52 23 102 25 110 2 8 4 18 4 21 1 4 27 1
59 -6 161 -36 316 -40 427 -11 62 17 175 70 216 103 170 134 270 340 271 557
1 97 -14 193 -40 266 -3 8 -6 21 -8 27 -10 51 -84 170 -138 225 -66 67 -161
146 -212 177 -39 23 -139 59 -184 65 -19 3 -46 8 -60 11 -54 12 -326 26 -334
17z m337 -586 c16 -2 31 -7 34 -10 4 -3 7 -40 9 -81 3 -64 -1 -82 -22 -123
-14 -27 -37 -56 -53 -65 -32 -18 -120 -34 -169 -29 -33 3 -33 4 -28 45 3 23 8
51 10 63 2 11 7 45 10 75 4 30 8 63 10 74 3 11 5 31 5 44 1 23 2 23 84 17 45
-3 95 -8 110 -10z"/>
<path d="M1918 6101 c-26 -9 -82 -44 -103 -66 -43 -43 -66 -117 -70 -225 -2
-41 -6 -109 -9 -150 -4 -41 -8 -111 -11 -154 -3 -44 -7 -96 -10 -115 -4 -35
-10 -90 -21 -196 -3 -27 -7 -61 -9 -75 -3 -14 -7 -50 -10 -80 -3 -30 -7 -66
-10 -80 -2 -14 -7 -44 -10 -67 -17 -123 -24 -172 -31 -201 -3 -13 -7 -43 -10
-65 -3 -23 -9 -55 -13 -72 -17 -67 -13 -163 9 -212 25 -57 43 -78 94 -110 22
-14 50 -38 63 -53 97 -116 313 -87 383 50 16 33 26 71 37 145 2 17 9 55 15 85
6 30 12 66 13 80 4 34 14 98 22 140 6 31 8 51 12 99 3 38 17 -10 57 -189 20
-87 19 -84 43 -175 11 -44 22 -93 25 -109 10 -58 56 -134 94 -157 20 -13 56
-41 79 -63 53 -50 61 -54 122 -66 107 -20 221 35 270 132 36 70 35 105 -9 280
-17 70 -33 136 -36 148 -2 11 -6 28 -8 38 -10 40 -28 118 -31 132 -2 8 -10 43
-19 76 -9 34 -16 67 -16 73 0 6 26 28 57 48 31 20 79 58 106 84 28 27 51 49
52 49 1 0 2 -53 2 -117 0 -65 3 -140 7 -168 27 -185 104 -360 203 -462 75 -77
223 -194 278 -219 153 -71 335 -57 520 39 33 18 62 34 65 37 3 3 32 23 65 45
84 57 186 163 224 234 28 53 67 156 76 201 2 8 4 15 5 15 1 0 3 8 5 19 2 10 9
39 15 65 6 25 13 60 15 76 2 17 4 30 5 30 3 0 10 53 18 132 11 119 6 267 -13
358 -10 44 -18 85 -19 90 -1 6 -12 32 -24 59 -12 27 -22 55 -22 62 0 8 -4 14
-9 14 -5 0 -14 12 -19 28 -16 45 -98 136 -182 204 -25 20 -58 48 -75 62 -41
37 -157 106 -178 106 -9 0 -17 5 -17 10 0 6 -3 9 -7 8 -5 -1 -21 1 -38 5 -64
15 -82 17 -155 17 -84 0 -83 0 -165 -24 -145 -43 -266 -143 -379 -314 -36 -56
-69 -108 -72 -116 -10 -27 -21 -18 -32 27 -22 85 -93 181 -192 257 -24 19 -56
46 -70 59 -47 43 -176 106 -260 126 -108 26 -196 41 -290 50 -103 10 -377 13
-402 6z m489 -587 c26 -3 59 -7 73 -8 34 -3 70 -16 70 -24 -1 -25 -120 -78
-185 -83 -42 -3 -44 0 -41 54 3 57 12 81 26 72 4 -3 30 -8 57 -11z m1498 -60
c41 -16 62 -185 42 -334 -14 -106 -18 -127 -24 -155 -4 -16 -8 -35 -9 -42 -10
-55 -41 -117 -77 -155 -43 -45 -137 -115 -137 -101 0 4 -5 2 -12 -5 -18 -18
-27 -15 -39 14 -34 91 -28 279 13 412 32 107 146 322 170 322 5 0 8 7 8 15 0
7 8 19 18 24 20 12 25 13 47 5z"/>
<path d="M6345 6083 c-37 -10 -104 -63 -133 -106 -26 -39 -57 -115 -66 -162
-2 -11 -11 -47 -21 -80 -34 -124 -177 -676 -180 -695 -1 -8 -8 -35 -15 -60 -6
-25 -14 -54 -16 -65 -5 -26 -7 -34 -50 -210 -43 -178 -45 -234 -11 -301 28
-55 122 -164 141 -164 7 0 28 -16 47 -36 78 -81 154 -102 289 -80 131 21 432
28 545 11 33 -5 98 -9 145 -9 75 0 91 3 130 26 47 27 82 66 95 108 28 81 30
143 10 198 -16 41 -84 122 -103 122 -4 0 -30 22 -59 49 -61 57 -111 74 -232
77 -115 2 -333 14 -348 19 -8 3 -8 19 4 62 8 32 19 63 23 68 7 8 214 12 290 5
56 -5 108 17 168 72 60 54 86 110 86 185 0 56 -4 68 -40 120 -21 31 -52 64
-68 72 -15 9 -49 36 -74 59 -61 57 -90 71 -158 76 -31 3 -57 6 -59 8 -6 6 7
58 14 54 29 -18 348 -27 466 -13 181 22 174 20 233 36 24 7 60 28 82 47 115
105 107 293 -17 373 -21 14 -57 44 -80 67 -71 70 -136 84 -293 60 -170 -26
-371 -24 -550 5 -58 9 -161 10 -195 2z"/>
<path d="M9336 6062 c-2 -1 -41 -4 -87 -7 -105 -6 -169 -13 -268 -30 -104 -18
-171 -109 -174 -235 -1 -55 3 -73 26 -113 15 -25 48 -61 74 -78 25 -18 63 -49
84 -70 47 -47 100 -63 206 -62 l82 1 -4 -31 c-3 -18 -7 -57 -10 -87 -3 -30 -8
-71 -10 -90 -3 -19 -7 -57 -10 -85 -3 -27 -8 -66 -10 -85 -3 -19 -7 -57 -10
-85 -8 -79 -14 -135 -21 -190 -3 -27 -7 -61 -9 -75 -1 -14 -7 -56 -11 -95 -5
-38 -9 -117 -9 -175 0 -97 3 -109 29 -155 33 -60 72 -102 100 -111 12 -4 37
-24 56 -45 43 -46 94 -69 156 -69 109 0 191 49 232 139 26 56 29 93 20 201 -3
25 -1 57 3 72 4 15 10 56 14 90 3 35 8 77 11 93 4 33 10 87 19 180 4 33 9 74
11 90 3 17 7 57 9 90 2 33 5 60 5 60 2 0 7 35 14 113 4 41 9 82 11 93 2 11 7
52 10 91 4 40 8 75 11 79 2 3 23 3 46 -2 79 -14 199 -5 245 19 46 24 103 87
103 114 0 9 4 20 10 23 17 10 4 138 -19 182 -24 47 -76 101 -106 109 -11 3
-29 17 -39 33 -19 28 -70 63 -96 67 -8 1 -32 5 -52 8 -85 13 -117 17 -203 23
-92 5 -435 10 -439 5z"/>
<path d="M5518 6026 c-48 -17 -88 -43 -88 -58 0 -6 -3 -8 -7 -5 -9 9 -50 -65
-62 -111 -9 -33 -16 -75 -26 -152 -4 -29 -33 -210 -41 -255 -3 -16 -7 -43 -9
-58 -2 -16 -6 -40 -10 -55 -3 -15 -7 -36 -9 -47 -3 -11 -9 -40 -15 -65 -5 -25
-13 -61 -16 -80 -3 -19 -10 -51 -15 -70 -5 -19 -11 -47 -14 -62 -8 -46 -38
-168 -42 -168 -2 0 -10 15 -19 33 -8 17 -34 46 -57 62 -23 17 -63 49 -88 72
-105 96 -232 102 -326 15 -53 -48 -86 -107 -100 -177 -17 -87 -18 -104 -11
-189 16 -170 86 -284 266 -436 138 -116 215 -145 381 -145 108 1 120 3 195 35
146 62 251 193 313 390 23 71 42 142 48 178 8 48 13 69 23 112 5 25 12 56 14
70 3 14 17 86 32 160 14 74 28 149 30 165 3 17 7 41 10 55 2 13 7 42 10 65 4
22 8 54 11 70 3 17 7 44 10 60 2 17 6 41 9 55 3 14 7 45 10 70 3 25 8 65 12
90 7 46 8 93 1 120 -8 36 -50 91 -90 120 -24 17 -61 48 -84 69 -69 66 -170 93
-246 67z"/>
<path d="M8130 5999 c-19 -3 -49 -9 -67 -13 -66 -13 -191 -86 -256 -150 -63
-62 -127 -145 -127 -165 0 -6 -4 -11 -10 -11 -5 0 -10 -7 -10 -15 0 -9 -6 -26
-14 -38 -35 -54 -85 -243 -102 -387 -15 -128 -9 -370 12 -485 36 -200 138
-387 255 -465 12 -8 47 -37 78 -63 65 -57 152 -100 234 -117 59 -12 184 -8
247 8 67 17 165 64 230 110 70 50 180 155 180 172 0 5 4 10 8 10 9 0 92 140
96 162 2 7 9 27 16 43 7 17 13 62 14 100 1 86 -22 136 -85 183 -24 18 -62 50
-84 71 -22 21 -54 45 -70 53 -70 36 -164 39 -226 7 -39 -19 -99 -75 -97 -88 1
-3 -4 -19 -10 -34 -7 -16 -12 -32 -12 -36 0 -50 -151 -203 -176 -179 -21 21
-33 279 -19 413 16 158 65 275 135 325 l28 20 28 -56 c19 -38 41 -66 67 -83
22 -14 58 -44 81 -65 148 -140 370 -84 411 104 14 65 6 112 -36 199 -23 47
-44 88 -48 91 -3 3 -12 16 -19 30 -20 38 -110 133 -167 175 -27 21 -60 47 -72
59 -87 87 -279 140 -413 115z"/>
<path d="M1684 4024 c-5 -2 -34 -5 -64 -8 -260 -23 -464 -210 -612 -561 -18
-44 -76 -225 -72 -225 3 0 0 -8 -5 -18 -6 -11 -12 -31 -15 -46 -3 -14 -7 -34
-10 -44 -9 -31 -33 -175 -43 -261 -9 -75 -9 -322 0 -392 16 -128 75 -299 126
-362 28 -36 85 -93 109 -109 12 -8 40 -31 62 -51 52 -49 126 -95 172 -107 33
-9 137 -23 163 -22 24 1 90 15 114 24 14 5 28 10 31 10 82 9 269 150 383 288
108 130 206 334 240 500 37 178 -3 308 -118 387 -16 12 -48 38 -71 60 -65 60
-159 95 -274 99 -95 3 -207 21 -215 34 -6 9 68 129 103 166 37 40 82 64 122
64 33 0 46 -20 57 -87 3 -18 9 -33 13 -33 4 0 11 -10 17 -23 6 -12 30 -36 54
-52 24 -17 60 -46 80 -66 71 -69 159 -92 250 -65 176 53 214 260 87 484 -46
79 -183 216 -297 295 -56 39 -170 89 -231 102 -8 2 -17 4 -20 5 -3 1 -8 2 -11
2 -3 -1 -30 3 -60 7 -31 4 -60 6 -65 5z m-154 -1349 c18 -9 41 -18 52 -20 12
-3 22 -6 24 -8 5 -4 -51 -90 -81 -126 -32 -39 -58 -61 -65 -56 -5 3 -6 136 -1
238 1 27 1 27 20 8 11 -11 34 -27 51 -36z"/>
<path d="M7750 3984 c-112 -21 -217 -67 -258 -113 -53 -60 -64 -98 -77 -266
-3 -38 -7 -97 -10 -130 -12 -165 -17 -223 -20 -255 -2 -19 -7 -62 -10 -95 -4
-33 -8 -71 -10 -85 -3 -14 -7 -43 -10 -65 -7 -44 -31 -185 -40 -226 -4 -22
-57 -226 -69 -269 -10 -36 -60 -167 -72 -191 -7 -15 -16 -41 -19 -58 -3 -17
-7 -44 -10 -59 -7 -44 21 -138 52 -173 16 -17 41 -38 58 -46 16 -9 43 -31 60
-49 68 -74 173 -99 270 -63 73 27 105 68 152 194 44 115 91 257 99 297 2 13
12 50 22 82 l18 59 99 2 c77 2 118 8 176 28 69 23 166 70 179 86 3 4 18 15 33
24 95 61 222 199 286 311 65 112 86 202 85 351 -1 207 -71 335 -275 506 -97
82 -232 157 -314 174 -11 2 -35 8 -53 14 -18 5 -36 10 -40 10 -4 1 -20 4 -37
7 -61 11 -202 10 -265 -2z m359 -585 l42 -13 -6 -44 c-10 -75 -60 -150 -152
-226 -22 -18 -22 -18 -18 5 6 28 15 122 20 202 7 104 11 107 114 76z"/>
<path d="M4651 3944 c-36 -7 -84 -23 -108 -34 -23 -11 -45 -20 -48 -20 -2 0
-32 -19 -65 -42 -124 -85 -224 -217 -291 -384 -17 -43 -32 -83 -34 -89 -6 -30
-18 -71 -24 -80 -3 -5 -6 -14 -7 -20 -5 -25 -13 -62 -18 -85 -35 -150 -42
-613 -11 -785 35 -198 78 -267 259 -417 137 -114 257 -150 471 -144 72 2 155
9 185 16 72 16 187 70 226 106 84 77 162 223 214 399 83 285 115 483 113 705
-1 122 -5 156 -33 265 -43 167 -143 328 -259 413 -20 14 -55 43 -78 64 -40 36
-148 103 -156 96 -2 -2 -10 2 -18 8 -43 34 -217 49 -318 28z m244 -597 c45
-108 30 -387 -32 -606 -8 -29 -17 -61 -18 -70 -2 -9 -4 -17 -5 -18 -2 -2 -3
-6 -4 -10 -9 -40 -52 -167 -68 -200 -22 -44 -40 -52 -101 -45 -32 4 -37 8 -38
31 0 14 -2 44 -4 66 -6 66 -5 294 1 385 5 76 40 243 63 295 42 100 42 100 98
161 12 13 29 24 38 24 8 0 15 5 15 10 0 6 9 10 21 10 13 0 25 -11 34 -33z"/>
<path d="M2777 3870 c-50 -23 -89 -61 -115 -113 -24 -50 -29 -78 -57 -317 -5
-43 -22 -169 -30 -220 -2 -14 -13 -83 -25 -155 -11 -71 -22 -139 -24 -150 -2
-11 -7 -40 -11 -65 -4 -25 -9 -54 -11 -65 -3 -11 -7 -36 -10 -55 -3 -19 -7
-41 -10 -49 -2 -8 -7 -30 -10 -50 -8 -46 -12 -66 -14 -66 -1 0 -3 -9 -5 -20
-3 -21 -9 -55 -19 -95 -3 -14 -8 -36 -10 -50 -2 -14 -9 -43 -14 -65 -30 -111
-30 -178 -1 -245 18 -40 81 -110 100 -110 3 0 30 -22 59 -50 32 -31 68 -54 94
-62 96 -28 198 1 261 74 35 42 54 105 105 358 12 58 24 114 26 125 2 11 11 60
20 110 15 90 33 141 34 100 0 -11 16 -65 36 -120 20 -55 39 -109 42 -120 3
-11 11 -29 19 -40 7 -11 13 -25 13 -33 0 -29 148 -331 175 -358 12 -12 35 -29
51 -37 16 -9 45 -32 64 -52 19 -20 48 -44 65 -53 31 -16 159 -27 179 -14 6 3
17 7 23 8 32 5 98 71 121 122 36 80 28 149 -36 283 -69 147 -77 165 -110 252
-17 42 -28 77 -25 77 3 0 1 6 -5 13 -5 6 -21 50 -36 96 -29 92 -30 86 34 120
41 22 147 122 175 166 75 116 106 226 100 358 -7 163 -57 260 -189 362 -21 16
-55 44 -75 62 -20 18 -41 33 -47 33 -6 0 -17 6 -23 13 -6 8 -30 20 -53 27 -24
7 -63 19 -86 27 -24 7 -60 16 -80 19 -21 2 -50 8 -67 11 -16 4 -39 8 -50 9
-11 1 -47 4 -80 8 -33 3 -143 8 -245 10 -160 3 -190 1 -223 -14z m576 -579
c10 -10 -74 -46 -126 -54 -38 -6 -38 -6 -36 26 2 18 5 35 7 40 4 9 144 -1 155
-12z"/>
<path d="M6765 3882 c-111 -39 -167 -130 -180 -287 -2 -22 -6 -58 -9 -80 -4
-22 -9 -58 -12 -80 -10 -74 -23 -155 -38 -237 -32 -173 -93 -344 -177 -498
-19 -35 -79 -120 -84 -120 -6 0 2 439 8 465 3 11 8 43 11 70 12 89 18 120 25
135 4 8 7 22 6 30 0 8 9 48 21 88 44 146 16 239 -93 309 -29 18 -53 38 -53 43
0 16 -83 66 -127 77 -137 34 -249 -28 -291 -159 -18 -56 -31 -104 -37 -133 -5
-20 -25 -121 -30 -145 -3 -14 -8 -45 -11 -70 -3 -25 -7 -56 -9 -70 -25 -159
-25 -483 0 -650 3 -19 7 -48 9 -65 2 -16 5 -30 6 -30 1 0 4 -13 6 -30 7 -47
45 -145 80 -205 39 -66 73 -104 139 -155 28 -22 55 -44 60 -50 22 -24 109 -85
121 -85 8 0 14 -4 14 -8 0 -8 47 -25 104 -39 52 -12 145 -9 201 7 166 48 303
177 443 419 23 40 42 75 42 77 0 2 14 32 31 66 57 117 134 348 156 468 2 14 9
45 14 70 6 25 12 59 15 75 2 17 8 59 13 95 11 69 16 105 26 185 4 28 10 76 14
108 7 54 7 123 -1 158 -9 37 -88 129 -112 129 -6 0 -31 20 -54 44 -24 25 -60
52 -79 61 -39 19 -136 28 -168 17z"/>
</g>
</svg>
